<?xml version="1.0" encoding="utf-8"?>
<!-- Generator: Adobe Illustrator 23.0.1, SVG Export Plug-In . SVG Version: 6.00 Build 0)  -->
<svg version="1.1" id="레이어_1" xmlns="http://www.w3.org/2000/svg" xmlns:xlink="http://www.w3.org/1999/xlink" x="0px"
	 y="0px" viewBox="0 0 16 16" style="enable-background:new 0 0 16 16;" xml:space="preserve">
<style type="text/css">
	.st0{fill:#2772BA;}
	.st1{fill:#EEEEEE;}
</style>
<path class="st0" d="M16,8v6.76c0,0.69-0.56,1.24-1.24,1.24H8H1.24C0.56,16,0,15.44,0,14.76V8V1.24C0,0.56,0.56,0,1.24,0H8l6.76,0
	C15.44,0,16,0.56,16,1.24V8z"/>
<path class="st1" d="M6.12,11.42c-0.22,0-0.44-0.07-0.62-0.21L3.24,9.42C2.8,9.08,2.73,8.45,3.07,8.02c0.34-0.44,0.97-0.51,1.4-0.17
	L6.06,9.1l5.26-4.98c0.4-0.38,1.03-0.36,1.41,0.04c0.38,0.4,0.36,1.03-0.04,1.41l-5.88,5.57C6.62,11.32,6.37,11.42,6.12,11.42z"/>
</svg>
