<?xml version="1.0" encoding="utf-8"?>
<!-- Generator: Adobe Illustrator 23.0.1, SVG Export Plug-In . SVG Version: 6.00 Build 0)  -->
<svg version="1.1" id="레이어_3" xmlns="http://www.w3.org/2000/svg" xmlns:xlink="http://www.w3.org/1999/xlink" x="0px"
	 y="0px" viewBox="0 0 6 6" style="enable-background:new 0 0 6 6;" xml:space="preserve">
<style type="text/css">
	.st0{fill:#999899;}
</style>
<path class="st0" d="M1.52,0.29c0.15,0.04,0.29,0.12,0.4,0.23c0.29,0.29,0.37,0.73,0.19,1.11c-0.04,0.1-0.02,0.21,0.05,0.28
	l1.93,1.93C4.14,3.89,4.2,3.91,4.27,3.91c0.04,0,0.07-0.01,0.1-0.02C4.5,3.83,4.65,3.8,4.79,3.8c0.26,0,0.5,0.1,0.68,0.28
	c0.11,0.11,0.19,0.25,0.23,0.4L5.5,4.27C5.45,4.22,5.39,4.2,5.33,4.2c-0.02,0-0.05,0-0.07,0.01L4.57,4.4
	C4.49,4.43,4.43,4.49,4.4,4.57l-0.2,0.68c-0.03,0.09,0,0.18,0.06,0.25l0.21,0.21c-0.15-0.04-0.29-0.12-0.4-0.23
	C3.82,5.21,3.73,4.82,3.86,4.46C3.89,4.37,3.86,4.27,3.8,4.2l-2-2C1.75,2.16,1.69,2.13,1.62,2.13c-0.03,0-0.05,0-0.08,0.01
	C1.43,2.18,1.32,2.2,1.21,2.2c-0.26,0-0.5-0.1-0.68-0.28c-0.11-0.11-0.19-0.25-0.23-0.4L0.5,1.73C0.55,1.78,0.61,1.8,0.67,1.8
	c0.02,0,0.05,0,0.07-0.01l0.68-0.2C1.51,1.57,1.57,1.51,1.6,1.43l0.2-0.68c0.03-0.09,0-0.18-0.06-0.25L1.52,0.29 M1.25,0
	C1.14,0,1.03,0.01,0.92,0.04l0.63,0.63l-0.2,0.68l-0.68,0.2L0.04,0.92c-0.1,0.41-0.02,0.86,0.3,1.18c0.24,0.24,0.55,0.35,0.86,0.35
	c0.14,0,0.28-0.02,0.42-0.07l2,2C3.47,4.81,3.56,5.31,3.9,5.65C4.14,5.89,4.44,6,4.75,6c0.11,0,0.22-0.01,0.33-0.04L4.45,5.33
	l0.2-0.68l0.68-0.2l0.63,0.63c0.1-0.41,0.02-0.86-0.3-1.18C5.42,3.66,5.11,3.55,4.79,3.55c-0.18,0-0.36,0.04-0.53,0.12L2.34,1.73
	C2.55,1.28,2.47,0.72,2.1,0.35C1.86,0.11,1.56,0,1.25,0L1.25,0z"/>
<g>
	<path class="st0" d="M5.4,0L4.41,0.64L4.25,1.21L2.97,2.49l0.17,0.18l1.31-1.31l0.2,0.2L3.33,2.87L3.5,3.04L3.27,3.27l1.52-1.52
		l0.57-0.16L6,0.6L5.4,0z M4.84,1.48L4.51,1.15L4.62,0.8L5.2,1.38L4.84,1.48z M5.31,1.22L4.78,0.69l0.59-0.38l0.32,0.32L5.31,1.22z"
		/>
	<path class="st0" d="M2.6,3.59l-0.2-0.2l0.2-0.2L2.44,3.02L2.24,3.22l-0.3-0.3L1.82,3.04c-1.08,1.08-2.09,2.1-1.73,2.69L0.03,5.79
		l0.18,0.18l0.05-0.05C0.34,5.97,0.43,6,0.53,6c0.61,0,1.5-0.89,2.43-1.83l0.11-0.11l-0.3-0.3l0.19-0.19L2.8,3.39L2.6,3.59z
		 M1.94,3.27L2.07,3.4l0,0l0.17,0.17L0.27,5.55C0.14,5.09,1.11,4.1,1.94,3.27z M0.45,5.73l1.97-1.98L2.6,3.94l0,0l0.13,0.13
		C1.9,4.9,0.91,5.87,0.45,5.73z"/>
</g>
</svg>
