<svg xmlns="http://www.w3.org/2000/svg" viewBox="0 0 20.7024 23.5289"><defs><style>.cls-1{fill:#fff;}.cls-2{fill:none;stroke:#fff;stroke-linecap:round;stroke-linejoin:round;stroke-width:0.9691px;}</style></defs><g id="Layer_2" data-name="Layer 2"><g id="레이어_2" data-name="레이어 2"><path class="cls-1" d="M10.3512.9691c5.6057,0,7.3147,2.8783,7.3147,12.3193,0,.2344-.0024.4579-.0048.6691-.0142,1.2874-.0245,2.2175.5695,2.818a1.5257,1.5257,0,0,0,1.1172.4471c.1981,0,.3855.4546.3855.9355,0,.3744-.134.893-.3855.893H1.3546c-.2515,0-.3855-.5186-.3855-.893,0-.4809.1874-.9355.3855-.9355a1.5257,1.5257,0,0,0,1.1172-.4471c.5939-.6005.5837-1.5306.5694-2.8179-.0023-.2113-.0048-.4348-.0048-.6692,0-9.441,1.7091-12.3193,7.3148-12.3193m0-.9691C3.56,0,2.0673,4.3323,2.0673,13.2884c0,1.8009.1434,2.9651-.7127,2.9651-1.7788,0-1.8333,3.7666,0,3.7666H19.3478c1.8333,0,1.7788-3.7666,0-3.7666-.8561,0-.7128-1.1642-.7128-2.9651C18.635,4.3323,17.1424,0,10.3512,0Z"/><path class="cls-2" d="M7.4951,19.72a2.9,2.9,0,1,0,5.7121,0"/></g></g></svg>