<?xml version="1.0" encoding="utf-8"?>
<!-- Generator: Adobe Illustrator 23.0.1, SVG Export Plug-In . SVG Version: 6.00 Build 0)  -->
<svg version="1.1" id="레이어_1" xmlns="http://www.w3.org/2000/svg" xmlns:xlink="http://www.w3.org/1999/xlink" x="0px"
	 y="0px" viewBox="0 0 7.96 14.92" style="enable-background:new 0 0 7.96 14.92;" xml:space="preserve">
<style type="text/css">
	.st0{fill:#777777;}
</style>
<g>
	<path class="st0" d="M1.99,2.96H0.98C0.44,2.96,0,2.52,0,1.98v-1C0,0.44,0.44,0,0.98,0h1.01c0.54,0,0.98,0.44,0.98,0.98v1.01
		C2.97,2.53,2.53,2.96,1.99,2.96z"/>
	<path class="st0" d="M6.98,2.96H5.97c-0.54,0-0.98-0.44-0.98-0.98v-1C4.99,0.44,5.43,0,5.97,0h1.01c0.54,0,0.98,0.44,0.98,0.98
		v1.01C7.96,2.53,7.52,2.96,6.98,2.96z"/>
	<path class="st0" d="M1.99,8.94H0.98C0.44,8.94,0,8.5,0,7.96V6.95c0-0.54,0.44-0.98,0.98-0.98h1.01c0.54,0,0.98,0.44,0.98,0.98
		v1.01C2.97,8.5,2.53,8.94,1.99,8.94z"/>
	<path class="st0" d="M6.98,8.94H5.97c-0.54,0-0.98-0.44-0.98-0.98V6.95c0-0.54,0.44-0.98,0.98-0.98h1.01
		c0.54,0,0.98,0.44,0.98,0.98v1.01C7.96,8.5,7.52,8.94,6.98,8.94z"/>
	<path class="st0" d="M1.99,14.91H0.98C0.44,14.91,0,14.47,0,13.93v-1.01c0-0.54,0.44-0.98,0.98-0.98h1.01
		c0.54,0,0.98,0.44,0.98,0.98v1.01C2.97,14.47,2.53,14.91,1.99,14.91z"/>
	<path class="st0" d="M6.98,14.91H5.97c-0.54,0-0.98-0.44-0.98-0.98v-1.01c0-0.54,0.44-0.98,0.98-0.98h1.01
		c0.54,0,0.98,0.44,0.98,0.98v1.01C7.96,14.47,7.52,14.91,6.98,14.91z"/>
</g>
</svg>
