<?xml version="1.0" encoding="utf-8"?>
<!-- Generator: Adobe Illustrator 23.0.1, SVG Export Plug-In . SVG Version: 6.00 Build 0)  -->
<svg version="1.1" id="레이어_1" xmlns="http://www.w3.org/2000/svg" xmlns:xlink="http://www.w3.org/1999/xlink" x="0px"
	 y="0px" viewBox="0 0 44 37" style="enable-background:new 0 0 44 37;" xml:space="preserve">
<style type="text/css">
	.st0{fill:#CCCCCC;}
</style>
<path class="st0" d="M35.88,33.17h-9.96c-0.69,0-1.25-0.56-1.25-1.25s0.56-1.25,1.25-1.25h9.79c0.84-0.26,5.41-2.01,5.41-8.71
	c0-7.28-6.81-8.87-7.1-8.93c-0.57-0.13-0.98-0.63-0.98-1.22C33.03,7.57,29.09,3,22.72,3c-6.04,0-8.31,5.46-8.33,5.51
	c-0.25,0.62-0.94,0.93-1.58,0.71c-0.03-0.01-3.17-1.06-5.1,0.86c-2.06,2.05-1.27,5.53-1.26,5.56c0.12,0.53-0.11,1.09-0.58,1.37
	c-2.18,1.29-3.15,3.45-3.15,7.01c0,3.42,2.63,6.64,4.67,6.64h10.81c0.69,0,1.25,0.56,1.25,1.25s-0.56,1.25-1.25,1.25H7.4
	c-3.62,0-7.17-4.53-7.17-9.14c0-4.04,1.19-6.89,3.64-8.68c-0.18-1.54-0.22-4.74,2.08-7.03c2.17-2.17,5.06-2.02,6.61-1.73
	c1.1-1.95,4.14-6.09,10.16-6.09c7.45,0,12.22,5.2,12.76,10.34c3.25,1.07,8.13,4.38,8.13,11.11c0,9.24-7.36,11.16-7.44,11.18
	C36.08,33.16,35.98,33.17,35.88,33.17z"/>
<polygon class="st0" points="29.69,23.98 21.92,15.62 14.15,23.98 15.54,25.27 20.67,19.75 20.67,37 23.17,37 23.17,19.76 
	28.3,25.27 "/>
</svg>
