<?xml version="1.0" encoding="utf-8"?>
<!-- Generator: Adobe Illustrator 23.0.1, SVG Export Plug-In . SVG Version: 6.00 Build 0)  -->
<svg version="1.1" id="레이어_1" xmlns="http://www.w3.org/2000/svg" xmlns:xlink="http://www.w3.org/1999/xlink" x="0px"
	 y="0px" viewBox="0 0 13 13" style="enable-background:new 0 0 13 13;" xml:space="preserve">
<style type="text/css">
	.st0{fill:none;}
	.st1{fill:#767777;}
</style>
<g>
	<path class="st0" d="M6.5,6.08c1.26,0,2.29-1.03,2.29-2.29c0-1.26-1.03-2.29-2.29-2.29S4.21,2.53,4.21,3.79
		C4.21,5.06,5.24,6.08,6.5,6.08z"/>
	<path class="st0" d="M6.5,7.68c-2.73,0-4.96,2.38-4.96,5.31h9.92C11.46,10.06,9.23,7.68,6.5,7.68z"/>
	<path class="st1" d="M6.5,7.68c2.73,0,4.96,2.38,4.96,5.31H13c0-2.86-1.67-5.32-4.04-6.34c0.81-0.7,1.33-1.71,1.33-2.86
		C10.29,1.7,8.59,0,6.5,0S2.71,1.7,2.71,3.79c0,1.15,0.52,2.17,1.33,2.86C1.67,7.68,0,10.13,0,12.99h1.54
		C1.54,10.06,3.77,7.68,6.5,7.68z M6.5,1.5c1.26,0,2.29,1.03,2.29,2.29c0,1.26-1.03,2.29-2.29,2.29S4.21,5.06,4.21,3.79
		C4.21,2.53,5.24,1.5,6.5,1.5z"/>
</g>
</svg>
