<svg xmlns="http://www.w3.org/2000/svg" viewBox="0 0 23.159 23.159"><defs><style>.cls-1{fill:#fff;}.cls-2{fill:#8e8f8f;}</style></defs><g id="Layer_2" data-name="Layer 2"><g id="레이어_2" data-name="레이어 2"><circle class="cls-1" cx="11.5795" cy="11.5795" r="11.5795"/><path class="cls-2" d="M17.8418,7.4628c-.9608-1.4542-3.1251.0223-3.7739-.6265S14.2171,3.98,11.58,3.98,9.74,6.1875,9.0912,6.8363s-2.8132-.8277-3.774.6265c-1.087,1.6452.7734,2.7778.7734,4.1167s-1.86,2.4714-.7734,4.1166c.9608,1.4543,3.1252-.0221,3.774.6266S8.9419,19.179,11.58,19.179s1.84-2.2075,2.4884-2.8563,2.8131.8277,3.7739-.6266c1.087-1.6452-.7734-2.7777-.7734-4.1166S18.9288,9.108,17.8418,7.4628ZM11.58,14.3761a2.5955,2.5955,0,1,1,2.5955-2.5954A2.5955,2.5955,0,0,1,11.58,14.3761Z"/></g></g></svg>