<?xml version="1.0" encoding="utf-8"?>
<!-- Generator: Adobe Illustrator 23.0.1, SVG Export Plug-In . SVG Version: 6.00 Build 0)  -->
<svg version="1.1" id="레이어_1" xmlns="http://www.w3.org/2000/svg" xmlns:xlink="http://www.w3.org/1999/xlink" x="0px"
	 y="0px" viewBox="0 0 20 20" style="enable-background:new 0 0 20 20;" xml:space="preserve">
<style type="text/css">
	.st0{fill:#999899;}
</style>
<path class="st0" d="M16.39,15.02c1.28-1.58,2.06-3.6,2.06-5.8C18.44,4.13,14.32,0,9.22,0C4.13,0,0,4.13,0,9.22
	c0,5.09,4.13,9.22,9.22,9.22c2.2,0,4.22-0.77,5.8-2.06L18.63,20H20v-1.37L16.39,15.02z M9.22,16.51c-4.02,0-7.29-3.27-7.29-7.29
	c0-4.02,3.27-7.29,7.29-7.29s7.29,3.27,7.29,7.29C16.51,13.24,13.24,16.51,9.22,16.51z"/>
</svg>
