<?xml version="1.0" encoding="utf-8"?>
<!-- Generator: Adobe Illustrator 23.0.1, SVG Export Plug-In . SVG Version: 6.00 Build 0)  -->
<svg version="1.1" id="레이어_3" xmlns="http://www.w3.org/2000/svg" xmlns:xlink="http://www.w3.org/1999/xlink" x="0px"
	 y="0px" viewBox="0 0 12 12" style="enable-background:new 0 0 12 12;" xml:space="preserve">
<style type="text/css">
	.st0{fill:#ABAAAA;}
</style>
<polygon class="st0" points="6,2.66 10.71,2.66 10.71,1.33 7.93,1.33 7.93,0 6,0 4.07,0 4.07,1.33 1.29,1.33 1.29,2.66 "/>
<path class="st0" d="M8.81,4.02l-0.37,6.09l0,0.03v0.03c0,0.45-0.49,0.83-1.08,0.83H6H4.63c-0.59,0-1.08-0.38-1.08-0.83v-0.03
	l0-0.03L3.19,4.02H6H8.81 M9.88,3.02H6H2.12l0.43,7.15c0,1.01,0.93,1.83,2.08,1.83H6h1.37c1.15,0,2.08-0.82,2.08-1.83L9.88,3.02
	L9.88,3.02z"/>
<rect x="5.5" y="4.68" class="st0" width="1" height="5.51"/>
<rect x="3.9" y="4.67" transform="matrix(0.9967 -0.081 0.081 0.9967 -0.587 0.3804)" class="st0" width="1" height="5.53"/>
<rect x="4.84" y="6.93" transform="matrix(0.0801 -0.9968 0.9968 0.0801 -0.4126 14.4128)" class="st0" width="5.53" height="1"/>
</svg>
