<?xml version="1.0" encoding="utf-8"?>
<!-- Generator: Adobe Illustrator 23.0.1, SVG Export Plug-In . SVG Version: 6.00 Build 0)  -->
<svg version="1.1" id="레이어_1" xmlns="http://www.w3.org/2000/svg" xmlns:xlink="http://www.w3.org/1999/xlink" x="0px"
	 y="0px" viewBox="0 0 11 11" style="enable-background:new 0 0 11 11;" xml:space="preserve">
<style type="text/css">
	.st0{fill:#ABAAAA;}
	.st1{fill:none;stroke:#ABAAAA;stroke-width:0.5143;stroke-miterlimit:10;}
</style>
<g>
	<path class="st0" d="M2.28,0.53c0.13,0,0.26,0.05,0.35,0.15L3.5,1.55l7,7v1.95H8.55l-7-7L0.68,2.63C0.58,2.53,0.53,2.41,0.53,2.28
		c0-0.13,0.05-0.26,0.15-0.35l1.25-1.25C2.02,0.58,2.14,0.53,2.28,0.53 M2.28,0.03c-0.26,0-0.51,0.1-0.71,0.29L0.32,1.57
		c-0.39,0.39-0.39,1.02,0,1.41L1.2,3.86l7.12,7.12C8.33,10.99,8.35,11,8.37,11h2.55c0.04,0,0.07-0.03,0.07-0.07V8.37
		c0-0.02-0.01-0.04-0.02-0.05L3.86,1.2L2.98,0.32C2.79,0.13,2.53,0.03,2.28,0.03L2.28,0.03z"/>
</g>
<line class="st1" x1="1.2" y1="3.86" x2="3.86" y2="1.2"/>
<line class="st1" x1="10.58" y1="8.32" x2="8.43" y2="10.48"/>
</svg>
