<?xml version="1.0" encoding="utf-8"?>
<!-- Generator: Adobe Illustrator 23.0.1, SVG Export Plug-In . SVG Version: 6.00 Build 0)  -->
<svg version="1.1" id="레이어_3" xmlns="http://www.w3.org/2000/svg" xmlns:xlink="http://www.w3.org/1999/xlink" x="0px"
	 y="0px" viewBox="0 0 6 6" style="enable-background:new 0 0 6 6;" xml:space="preserve">
<style type="text/css">
	.st0{fill:#999899;}
</style>
<path class="st0" d="M5.76,4.64C5.91,4.43,6,4.14,6,3.8c0-0.48-0.18-0.88-0.44-1.05C5.51,1.08,4.52,0,3,0
	C1.48,0,0.49,1.08,0.44,2.75C0.17,2.92,0,3.31,0,3.8c0,0.65,0.31,1.14,0.73,1.14c0.42,0,0.73-0.49,0.73-1.14
	c0-0.53-0.22-0.94-0.52-1.08C1,1.35,1.77,0.5,3,0.5c1.23,0,2,0.85,2.06,2.23C4.76,2.86,4.54,3.26,4.54,3.8
	c0,0.65,0.31,1.14,0.73,1.14c0.01,0,0.02-0.01,0.03-0.01C5.07,5.12,4.68,5.27,4,5.33c-0.1-0.17-0.32-0.3-0.6-0.3
	c-0.36,0-0.65,0.21-0.65,0.48C2.76,5.79,3.04,6,3.41,6C3.74,6,4,5.82,4.04,5.58C5.04,5.49,5.59,5.19,5.76,4.64z M0.73,4.47
	c-0.08,0-0.25-0.25-0.25-0.67c0-0.43,0.18-0.67,0.25-0.67c0.08,0,0.25,0.25,0.25,0.67S0.81,4.47,0.73,4.47z M3.41,5.72
	c-0.21,0-0.37-0.11-0.37-0.2c0-0.1,0.16-0.2,0.37-0.2s0.36,0.11,0.36,0.2C3.77,5.61,3.61,5.72,3.41,5.72z M5.02,3.8
	c0-0.43,0.18-0.67,0.25-0.67c0.08,0,0.25,0.25,0.25,0.67S5.35,4.47,5.27,4.47C5.19,4.47,5.02,4.21,5.02,3.8z"/>
</svg>
