<?xml version="1.0" encoding="utf-8"?>
<!-- Generator: Adobe Illustrator 23.0.1, SVG Export Plug-In . SVG Version: 6.00 Build 0)  -->
<svg version="1.1" id="레이어_1" xmlns="http://www.w3.org/2000/svg" xmlns:xlink="http://www.w3.org/1999/xlink" x="0px"
	 y="0px" viewBox="0 0 14 20" style="enable-background:new 0 0 14 20;" xml:space="preserve">
<style type="text/css">
	.st0{fill:none;}
	.st1{fill:#2772BA;}
</style>
<rect x="1.17" y="9.19" class="st0" width="11.67" height="9.65"/>
<path class="st1" d="M11.79,8.02h-1.21H3.42H2.2H1.04C0.47,8.02,0,8.49,0,9.06v9.9C0,19.53,0.47,20,1.04,20h11.92
	c0.57,0,1.04-0.47,1.04-1.04v-9.9c0-0.57-0.47-1.04-1.04-1.04H11.79z"/>
<path class="st1" d="M3.42,4.79c0-1.97,1.61-3.58,3.58-3.58s3.58,1.61,3.58,3.58v3.24h1.21V4.79C11.79,2.14,9.65,0,7,0
	S2.21,2.14,2.21,4.79v3.24h1.21V4.79z"/>
</svg>
