<?xml version="1.0" encoding="utf-8"?>
<!-- Generator: Adobe Illustrator 23.0.1, SVG Export Plug-In . SVG Version: 6.00 Build 0)  -->
<svg version="1.1" id="레이어_1" xmlns="http://www.w3.org/2000/svg" xmlns:xlink="http://www.w3.org/1999/xlink" x="0px"
	 y="0px" viewBox="0 0 16 11" style="enable-background:new 0 0 16 11;" xml:space="preserve">
<style type="text/css">
	.st0{fill:none;}
	.st1{fill:#767777;}
</style>
<path class="st0" d="M8,7.63c-0.54,0-1.09-0.2-1.52-0.59L1.5,2.41v6.94c0,0.08,0.06,0.14,0.14,0.14h12.71
	c0.08,0,0.14-0.06,0.14-0.14V2.41L9.51,7.04C9.09,7.43,8.55,7.63,8,7.63z"/>
<path class="st0" d="M8.49,5.94l4.79-4.44H2.72l4.79,4.44C7.78,6.2,8.22,6.2,8.49,5.94z"/>
<path class="st1" d="M15.9,1.11c-0.17-0.5-0.58-0.89-1.09-1.04C14.67,0.03,14.52,0,14.36,0H1.64C1.48,0,1.33,0.03,1.18,0.07
	C0.67,0.22,0.27,0.61,0.1,1.11C0.04,1.28,0,1.46,0,1.64v7.71C0,10.26,0.74,11,1.64,11h12.71C15.26,11,16,10.26,16,9.36V1.64
	C16,1.46,15.96,1.28,15.9,1.11z M13.28,1.5L8.49,5.94c-0.28,0.26-0.71,0.26-0.99,0L2.72,1.5H13.28z M1.5,8.91V2.41l3.8,3.52
	L1.5,8.91z M3.18,9.5l3.23-2.53l0.08,0.07C6.91,7.43,7.46,7.63,8,7.63c0.55,0,1.09-0.2,1.51-0.59l0.08-0.07l3.23,2.53H3.18z
	 M14.5,8.91l-3.8-2.97l3.8-3.52V8.91z"/>
</svg>
