<?xml version="1.0" encoding="utf-8"?>
<!-- Generator: Adobe Illustrator 23.0.1, SVG Export Plug-In . SVG Version: 6.00 Build 0)  -->
<svg version="1.1" id="레이어_2" xmlns="http://www.w3.org/2000/svg" xmlns:xlink="http://www.w3.org/1999/xlink" x="0px"
	 y="0px" viewBox="0 0 6 6" style="enable-background:new 0 0 6 6;" xml:space="preserve">
<style type="text/css">
	.st0{fill:none;stroke:#FFFFFF;stroke-width:0.5;stroke-miterlimit:10;}
	.st1{fill:#CCCCCC;}
</style>
<path class="st0" d="M1.1,5.28"/>
<path class="st1" d="M3,0C1.35,0,0.01,1.34,0.01,2.99S1.35,5.99,3,5.99s2.99-1.34,2.99-2.99S4.65,0,3,0z M1.69,5.11
	C1.78,4.45,2.32,3.94,3,3.94c0.68,0,1.22,0.52,1.31,1.17C3.93,5.35,3.48,5.49,3,5.49C2.52,5.49,2.07,5.35,1.69,5.11z M2.37,2.39
	c0-0.34,0.28-0.63,0.63-0.63s0.63,0.28,0.63,0.63S3.34,3.02,3,3.02S2.37,2.74,2.37,2.39z M4.76,4.76c-0.2-0.68-0.78-1.19-1.49-1.3
	c0.49-0.12,0.86-0.55,0.86-1.07c0-0.62-0.5-1.13-1.13-1.13s-1.13,0.5-1.13,1.13c0,0.53,0.37,0.95,0.86,1.07
	c-0.71,0.11-1.29,0.62-1.49,1.3C0.79,4.31,0.51,3.68,0.51,2.99C0.51,1.62,1.62,0.5,3,0.5s2.49,1.12,2.49,2.49
	C5.49,3.68,5.21,4.31,4.76,4.76z"/>
</svg>
