<?xml version="1.0" encoding="utf-8"?>
<!-- Generator: Adobe Illustrator 23.0.1, SVG Export Plug-In . SVG Version: 6.00 Build 0)  -->
<svg version="1.1" id="레이어_3" xmlns="http://www.w3.org/2000/svg" xmlns:xlink="http://www.w3.org/1999/xlink" x="0px"
	 y="0px" viewBox="0 0 6 6" style="enable-background:new 0 0 6 6;" xml:space="preserve">
<style type="text/css">
	.st0{fill:#999899;}
</style>
<path class="st0" d="M4.96,3.49c0-1.75-0.74-2.43-1.72-2.53c0.05-0.1,0.08-0.23,0.08-0.37C3.32,0.27,3.17,0,3,0S2.68,0.27,2.68,0.59
	c0,0.14,0.03,0.27,0.08,0.37C1.79,1.06,1.04,1.75,1.04,3.49c0,0.77-1.01,0.57-1.01,1.25c0,0.48,0.45,0.54,2.16,0.54
	c0.02,0,0.04,0,0.06,0C2.37,5.7,2.65,6,3,6s0.63-0.3,0.75-0.71c0.02,0,0.04,0,0.06,0c1.71-0.01,2.16-0.06,2.16-0.54
	C5.97,4.06,4.96,4.26,4.96,3.49z M3,0.29c0.03,0.05,0.07,0.16,0.07,0.31C3.07,0.74,3.03,0.85,3,0.9C2.97,0.85,2.93,0.74,2.93,0.59
	C2.93,0.44,2.97,0.34,3,0.29z M3,5.75c-0.21,0-0.4-0.18-0.5-0.45l0.21,0h0.14H3h0.15h0.14l0.21,0C3.4,5.57,3.21,5.75,3,5.75z
	 M3.81,4.79l-0.52,0H3.15H3H2.85H2.72l-0.52,0c-0.48,0-1.31,0-1.63-0.08c0.05-0.03,0.12-0.07,0.18-0.1c0.28-0.14,0.8-0.41,0.8-1.11
	c0-2.05,1.1-2.05,1.46-2.05s1.46,0,1.46,2.05c0,0.7,0.52,0.97,0.8,1.11c0.05,0.03,0.12,0.06,0.17,0.1C5.1,4.78,4.28,4.79,3.81,4.79z
	"/>
</svg>
