<?xml version="1.0" encoding="utf-8"?>
<!-- Generator: Adobe Illustrator 23.0.1, SVG Export Plug-In . SVG Version: 6.00 Build 0)  -->
<svg version="1.1" id="레이어_2" xmlns="http://www.w3.org/2000/svg" xmlns:xlink="http://www.w3.org/1999/xlink" x="0px"
	 y="0px" viewBox="0 0 14 15" style="enable-background:new 0 0 14 15;" xml:space="preserve">
<style type="text/css">
	.st0{fill:#999899;}
</style>
<path class="st0" d="M7,10.76c-1.8,0-3.26-1.46-3.26-3.26S5.2,4.24,7,4.24s3.26,1.46,3.26,3.26S8.8,10.76,7,10.76z M7,5.24
	c-1.25,0-2.26,1.01-2.26,2.26c0,1.25,1.01,2.26,2.26,2.26c1.25,0,2.26-1.01,2.26-2.26C9.26,6.25,8.25,5.24,7,5.24z"/>
<path class="st0" d="M7,15c-1.27,0-1.57-0.68-1.85-1.34c-0.17-0.41-0.37-0.87-0.85-1.37c-0.36-0.38-0.81-0.3-1.52-0.14
	c-0.76,0.17-1.79,0.4-2.45-0.66c-0.72-1.16,0.04-2.06,0.6-2.72C1.3,8.34,1.65,7.93,1.65,7.5S1.3,6.66,0.93,6.22
	C0.37,5.57-0.4,4.67,0.33,3.51c0.66-1.06,1.7-0.83,2.45-0.66C3.49,3.01,3.95,3.09,4.3,2.71c0.47-0.5,0.67-0.96,0.85-1.37
	C5.43,0.68,5.73,0,7,0c1.28,0,1.57,0.68,1.85,1.34C9.02,1.74,9.22,2.21,9.7,2.71c0.36,0.38,0.81,0.3,1.52,0.14
	c0.75-0.17,1.79-0.4,2.45,0.66c0.72,1.16-0.04,2.06-0.6,2.72c-0.37,0.43-0.72,0.85-0.72,1.28s0.35,0.84,0.72,1.28
	c0.56,0.66,1.33,1.56,0.6,2.72c-0.66,1.06-1.7,0.82-2.45,0.66c-0.71-0.16-1.16-0.24-1.52,0.14c-0.47,0.5-0.67,0.96-0.85,1.37
	C8.57,14.32,8.28,15,7,15z M3.63,11.02c0.48,0,0.98,0.13,1.4,0.59c0.6,0.63,0.85,1.23,1.04,1.66C6.33,13.87,6.39,14,7,14
	s0.67-0.13,0.93-0.73c0.19-0.43,0.44-1.03,1.04-1.66c0.77-0.81,1.75-0.59,2.47-0.43c0.81,0.18,1.12,0.21,1.38-0.21
	c0.31-0.49,0.1-0.81-0.51-1.54C11.86,8.9,11.35,8.3,11.35,7.5s0.51-1.4,0.96-1.93c0.62-0.72,0.82-1.04,0.51-1.54
	c-0.26-0.42-0.57-0.39-1.38-0.21c-0.72,0.16-1.7,0.38-2.47-0.43c-0.6-0.63-0.85-1.23-1.04-1.66C7.67,1.13,7.61,1,7,1
	S6.33,1.13,6.07,1.73C5.89,2.17,5.63,2.76,5.03,3.4C4.27,4.21,3.28,3.99,2.56,3.83C1.75,3.65,1.44,3.62,1.18,4.04
	c-0.31,0.49-0.1,0.81,0.51,1.54C2.14,6.1,2.65,6.7,2.65,7.5S2.14,8.9,1.69,9.43c-0.62,0.72-0.82,1.04-0.51,1.54
	c0.26,0.42,0.57,0.39,1.38,0.21C2.88,11.1,3.25,11.02,3.63,11.02z"/>
</svg>
