<?xml version="1.0" encoding="utf-8"?>
<!-- Generator: Adobe Illustrator 23.0.1, SVG Export Plug-In . SVG Version: 6.00 Build 0)  -->
<svg version="1.1" id="레이어_1" xmlns="http://www.w3.org/2000/svg" xmlns:xlink="http://www.w3.org/1999/xlink" x="0px"
	 y="0px" viewBox="0 0 6 6" style="enable-background:new 0 0 6 6;" xml:space="preserve">
<style type="text/css">
	.st0{fill:#999899;}
</style>
<polygon class="st0" points="4.48,2.62 3.38,2.62 3.38,1.52 2.62,1.52 2.62,2.62 1.52,2.62 1.52,3.38 2.62,3.38 2.62,4.48 
	3.38,4.48 3.38,3.38 4.48,3.38 "/>
<path class="st0" d="M3,0.75c1.24,0,2.25,1.01,2.25,2.25S4.24,5.25,3,5.25S0.75,4.24,0.75,3S1.76,0.75,3,0.75 M3,0
	C1.34,0,0,1.34,0,3s1.34,3,3,3s3-1.34,3-3S4.66,0,3,0L3,0z"/>
</svg>
