<svg xmlns="http://www.w3.org/2000/svg" viewBox="0 0 20.1228 23.159"><defs><style>.cls-1{fill:#fff;}</style></defs><g id="Layer_2" data-name="Layer 2"><g id="레이어_2" data-name="레이어 2"><path class="cls-1" d="M10.0614,1.1117c1.8387,0,1.9638.71,2.191,1.9981a3.5526,3.5526,0,0,0,.8145,2.0284,2.2059,2.2059,0,0,0,1.6253.5918,8.6149,8.6149,0,0,0,1.4195-.1643,8.7439,8.7439,0,0,1,1.3929-.1635A1.197,1.197,0,0,1,18.676,5.92c.6257.9471.294,1.636-.3976,2.8717a5.7712,5.7712,0,0,0-.9651,2.7881,5.7708,5.7708,0,0,0,.9651,2.7881c.6916,1.2357,1.0233,1.9246.3976,2.8717a1.1969,1.1969,0,0,1-1.1716.5175,8.7415,8.7415,0,0,1-1.3927-.1635,8.6246,8.6246,0,0,0-1.4194-.1643,2.206,2.206,0,0,0-1.6254.5918,3.5526,3.5526,0,0,0-.8145,2.0284c-.2272,1.2884-.3523,1.9981-2.191,1.9981s-1.9638-.71-2.191-1.9981a3.552,3.552,0,0,0-.8145-2.0284,2.2064,2.2064,0,0,0-1.6252-.5918,8.6172,8.6172,0,0,0-1.42.1643,8.7417,8.7417,0,0,1-1.3926.1635,1.1969,1.1969,0,0,1-1.1715-.5175c-.6258-.9471-.294-1.636.3975-2.8717A5.7708,5.7708,0,0,0,2.81,11.58a5.7712,5.7712,0,0,0-.9651-2.7881C1.1529,7.5557.8211,6.8668,1.4469,5.92a1.1969,1.1969,0,0,1,1.1715-.5175,8.7417,8.7417,0,0,1,1.3926.1635,8.6173,8.6173,0,0,0,1.42.1643,2.2058,2.2058,0,0,0,1.6253-.5918A3.552,3.552,0,0,0,7.87,3.11c.2272-1.2884.3524-1.9981,2.191-1.9981m0-1.1117C6.0425,0,7.2584,3.3636,6.27,4.3521a1.1384,1.1384,0,0,1-.8392.2662c-.7689,0-1.8237-.3278-2.8122-.3278A2.3138,2.3138,0,0,0,.5193,5.3069C-1.1369,7.8137,1.6979,9.5394,1.6979,11.58S-1.1369,15.3454.5193,17.8521a2.3135,2.3135,0,0,0,2.0991,1.0164c.9885,0,2.0434-.3278,2.8122-.3278a1.139,1.139,0,0,1,.8392.2662c.9886.9885-.2273,4.3521,3.7916,4.3521s2.8031-3.3636,3.7916-4.3521a1.1387,1.1387,0,0,1,.8393-.2662c.7688,0,1.8236.3278,2.8121.3278a2.3138,2.3138,0,0,0,2.0991-1.0164C21.26,15.3454,18.425,13.62,18.425,11.58S21.26,7.8137,19.6035,5.3069a2.3134,2.3134,0,0,0-2.099-1.0164c-.9886,0-2.0435.3278-2.8123.3278a1.1392,1.1392,0,0,1-.8392-.2662C12.8645,3.3636,14.08,0,10.0614,0Z"/><path class="cls-1" d="M10.0614,8.7364A2.8431,2.8431,0,1,1,7.2183,11.58a2.8463,2.8463,0,0,1,2.8431-2.8431m0-1.1117A3.9548,3.9548,0,1,0,14.0162,11.58a3.9548,3.9548,0,0,0-3.9548-3.9548Z"/></g></g></svg>