<svg version="1.1" id="레이어_1" xmlns="http://www.w3.org/2000/svg" x="0" y="0" viewBox="0 0 44 37" xml:space="preserve"><style>.st0{fill:#ccc}</style><path class="st0" d="M35.88 33.17h-9.96a1.25 1.25 0 010-2.5h9.79c.84-.26 5.41-2.01 5.41-8.71 0-7.28-6.81-8.87-7.1-8.93-.57-.13-.98-.63-.98-1.22C33.03 7.57 29.09 3 22.72 3c-6.04 0-8.31 5.46-8.33 5.51-.25.62-.94.93-1.58.71-.03-.01-3.17-1.06-5.1.86-2.06 2.05-1.27 5.53-1.26 5.56.12.53-.11 1.09-.58 1.37-2.18 1.29-3.15 3.45-3.15 7.01 0 3.42 2.63 6.64 4.67 6.64H18.2a1.25 1.25 0 010 2.5H7.4c-3.62 0-7.17-4.53-7.17-9.14 0-4.04 1.19-6.89 3.64-8.68-.18-1.54-.22-4.74 2.08-7.03 2.17-2.17 5.06-2.02 6.61-1.73C13.66 4.63 16.7.49 22.72.49c7.45 0 12.22 5.2 12.76 10.34 3.25 1.07 8.13 4.38 8.13 11.11 0 9.24-7.36 11.16-7.44 11.18a.71.71 0 01-.29.05z"/><path class="st0" d="M29.69 23.98l-7.77-8.36-7.77 8.36 1.39 1.29 5.13-5.52V37h2.5V19.76l5.13 5.51z"/></svg>