<svg xmlns="http://www.w3.org/2000/svg" viewBox="0 0 11 11"><path d="M2.28.53c.13 0 .26.05.35.15l.87.87 7 7v1.95H8.55l-7-7-.87-.87a.485.485 0 010-.7L1.93.68c.09-.1.21-.15.35-.15m0-.5c-.26 0-.51.1-.71.29L.32 1.57a.996.996 0 000 1.41l.88.88 7.12 7.12c.01.01.03.02.05.02h2.55c.04 0 .07-.03.07-.07V8.37c0-.02-.01-.04-.02-.05L3.86 1.2 2.98.32c-.19-.19-.45-.29-.7-.29z" fill="#abaaaa"/><path d="M1.2 3.86L3.86 1.2m6.72 7.12l-2.15 2.16" fill="none" stroke="#abaaaa" stroke-width=".514" stroke-miterlimit="10"/></svg>