<svg xmlns="http://www.w3.org/2000/svg" viewBox="0 0 13 13"><path d="M6.5 6.08c1.26 0 2.29-1.03 2.29-2.29S7.76 1.5 6.5 1.5 4.21 2.53 4.21 3.79A2.29 2.29 0 006.5 6.08zm0 1.6c-2.73 0-4.96 2.38-4.96 5.31h9.92c0-2.93-2.23-5.31-4.96-5.31z" fill="none"/><path d="M6.5 7.68c2.73 0 4.96 2.38 4.96 5.31H13c0-2.86-1.67-5.32-4.04-6.34.81-.7 1.33-1.71 1.33-2.86C10.29 1.7 8.59 0 6.5 0S2.71 1.7 2.71 3.79c0 1.15.52 2.17 1.33 2.86C1.67 7.68 0 10.13 0 12.99h1.54c0-2.93 2.23-5.31 4.96-5.31zm0-6.18c1.26 0 2.29 1.03 2.29 2.29S7.76 6.08 6.5 6.08a2.29 2.29 0 110-4.58z" fill="#767777"/></svg>