<svg xmlns="http://www.w3.org/2000/svg" viewBox="0 0 20.123 23.159"><defs><style>.cls-1{fill:#fff}</style></defs><g id="Layer_2" data-name="Layer 2"><g id="레이어_2" data-name="레이어 2"><path class="cls-1" d="M10.061 1.112c1.84 0 1.964.71 2.191 1.998a3.553 3.553 0 00.815 2.028 2.206 2.206 0 001.625.592 8.615 8.615 0 001.42-.164 8.744 8.744 0 011.393-.164 1.197 1.197 0 011.171.518c.626.947.294 1.636-.398 2.872a5.771 5.771 0 00-.965 2.788 5.77 5.77 0 00.965 2.788c.692 1.236 1.024 1.925.398 2.872a1.197 1.197 0 01-1.172.517 8.742 8.742 0 01-1.392-.163 8.625 8.625 0 00-1.42-.165 2.206 2.206 0 00-1.625.592 3.553 3.553 0 00-.815 2.028c-.227 1.289-.352 1.999-2.19 1.999s-1.964-.71-2.192-1.998a3.552 3.552 0 00-.814-2.029 2.206 2.206 0 00-1.625-.592 8.617 8.617 0 00-1.42.165 8.742 8.742 0 01-1.393.163 1.197 1.197 0 01-1.171-.517c-.626-.947-.294-1.636.397-2.872a5.77 5.77 0 00.966-2.788 5.771 5.771 0 00-.965-2.788C1.153 7.556.82 6.867 1.447 5.92a1.197 1.197 0 011.171-.517 8.742 8.742 0 011.393.163 8.617 8.617 0 001.42.164 2.206 2.206 0 001.625-.592A3.552 3.552 0 007.87 3.11c.227-1.288.352-1.998 2.191-1.998m0-1.112C6.043 0 7.258 3.364 6.27 4.352a1.138 1.138 0 01-.84.266c-.768 0-1.823-.328-2.811-.328a2.314 2.314 0 00-2.1 1.017c-1.656 2.507 1.179 4.232 1.179 6.273s-2.835 3.765-1.179 6.272a2.313 2.313 0 002.1 1.016c.988 0 2.043-.327 2.812-.327a1.139 1.139 0 01.839.266c.988.988-.227 4.352 3.791 4.352s2.803-3.364 3.792-4.352a1.139 1.139 0 01.84-.266c.768 0 1.823.328 2.811.328a2.314 2.314 0 002.1-1.017c1.656-2.507-1.179-4.232-1.179-6.272s2.835-3.766 1.178-6.273a2.313 2.313 0 00-2.099-1.017c-.988 0-2.043.328-2.812.328a1.14 1.14 0 01-.839-.266C12.864 3.364 14.08 0 10.061 0z"/><path class="cls-1" d="M10.061 8.736a2.843 2.843 0 11-2.843 2.844 2.846 2.846 0 012.843-2.843m0-1.112a3.955 3.955 0 103.955 3.955 3.955 3.955 0 00-3.955-3.955z"/></g></g></svg>