<svg xmlns="http://www.w3.org/2000/svg" viewBox="0 0 7.96 14.92"><path d="M1.99 2.96H.98c-.54 0-.98-.44-.98-.98v-1C0 .44.44 0 .98 0h1.01c.54 0 .98.44.98.98v1.01c0 .54-.44.97-.98.97zm4.99 0H5.97c-.54 0-.98-.44-.98-.98v-1c0-.54.44-.98.98-.98h1.01c.54 0 .98.44.98.98v1.01c0 .54-.44.97-.98.97zM1.99 8.94H.98C.44 8.94 0 8.5 0 7.96V6.95c0-.54.44-.98.98-.98h1.01c.54 0 .98.44.98.98v1.01c0 .54-.44.98-.98.98zm4.99 0H5.97c-.54 0-.98-.44-.98-.98V6.95c0-.54.44-.98.98-.98h1.01c.54 0 .98.44.98.98v1.01c0 .54-.44.98-.98.98zm-4.99 5.97H.98c-.54 0-.98-.44-.98-.98v-1.01c0-.54.44-.98.98-.98h1.01c.54 0 .98.44.98.98v1.01c0 .54-.44.98-.98.98zm4.99 0H5.97c-.54 0-.98-.44-.98-.98v-1.01c0-.54.44-.98.98-.98h1.01c.54 0 .98.44.98.98v1.01c0 .54-.44.98-.98.98z" fill="#777"/></svg>