<svg version="1.1" id="레이어_1" xmlns="http://www.w3.org/2000/svg" x="0" y="0" viewBox="0 0 16 11" xml:space="preserve"><style>.st0{fill:none}</style><path class="st0" d="M8 7.63c-.54 0-1.09-.2-1.52-.59L1.5 2.41v6.94c0 .08.06.14.14.14h12.71c.08 0 .14-.06.14-.14V2.41L9.51 7.04c-.42.39-.96.59-1.51.59z"/><path class="st0" d="M8.49 5.94l4.79-4.44H2.72l4.79 4.44c.27.26.71.26.98 0z"/><path d="M15.9 1.11c-.17-.5-.58-.89-1.09-1.04a1.63 1.63 0 00-.45-.07H1.64c-.16 0-.31.03-.46.07C.67.22.27.61.1 1.11c-.06.17-.1.35-.1.53v7.71C0 10.26.74 11 1.64 11h12.71c.91 0 1.65-.74 1.65-1.64V1.64c0-.18-.04-.36-.1-.53zm-2.62.39L8.49 5.94c-.28.26-.71.26-.99 0L2.72 1.5h10.56zM1.5 8.91v-6.5l3.8 3.52-3.8 2.98zm1.68.59l3.23-2.53.08.07a2.229 2.229 0 003.02 0l.08-.07 3.23 2.53H3.18zm11.32-.59l-3.8-2.97 3.8-3.52v6.49z" fill="#767777"/></svg>