<svg xmlns="http://www.w3.org/2000/svg" viewBox="0 0 6 6"><path d="M5.76 4.64c.15-.21.24-.5.24-.84 0-.48-.18-.88-.44-1.05C5.51 1.08 4.52 0 3 0S.49 1.08.44 2.75C.17 2.92 0 3.31 0 3.8c0 .65.31 1.14.73 1.14s.73-.49.73-1.14c0-.53-.22-.94-.52-1.08C1 1.35 1.77.5 3 .5s2 .85 2.06 2.23c-.3.13-.52.53-.52 1.07 0 .65.31 1.14.73 1.14.01 0 .02-.01.03-.01-.23.19-.62.34-1.3.4-.1-.17-.32-.3-.6-.3-.36 0-.65.21-.65.48.01.28.29.49.66.49.33 0 .59-.18.63-.42 1-.09 1.55-.39 1.72-.94zM.73 4.47c-.08 0-.25-.25-.25-.67 0-.43.18-.67.25-.67.08 0 .25.25.25.67s-.17.67-.25.67zm2.68 1.25c-.21 0-.37-.11-.37-.2 0-.1.16-.2.37-.2s.36.11.36.2c0 .09-.16.2-.36.2zM5.02 3.8c0-.43.18-.67.25-.67.08 0 .25.25.25.67s-.17.67-.25.67c-.08 0-.25-.26-.25-.67z" fill="#999899"/></svg>