<svg xmlns="http://www.w3.org/2000/svg" viewBox="0 0 12 11"><style/><path d="M4.97 1.51v-.03C4.97.66 4.3 0 3.48 0S2 .66 2 1.48v.03H0v1h2v.03c0 .82.66 1.48 1.48 1.48s1.48-.66 1.48-1.48v-.03H12v-1H4.97zm-1 1.02c0 .27-.22.48-.48.48S3 2.8 3 2.53V1.48c0-.26.22-.48.48-.48s.48.22.48.48v1.05zM9.99 5v-.03c0-.82-.66-1.48-1.48-1.48s-1.49.67-1.49 1.48V5H0v1h7.02v.03c0 .82.66 1.48 1.48 1.48s1.48-.66 1.48-1.48V6H12V5H9.99zm-1 1.03c0 .27-.22.48-.48.48s-.49-.22-.49-.48V4.97c0-.27.22-.48.48-.48s.48.22.48.48v1.06zM4.95 8.49v-.03c0-.82-.66-1.48-1.48-1.48s-1.49.66-1.49 1.48v.03H0v1h1.98v.03c0 .82.66 1.48 1.48 1.48s1.48-.66 1.48-1.48v-.03H12v-1H4.95zm-1 1.02c0 .27-.22.49-.48.49s-.49-.22-.49-.49V8.46c0-.27.22-.48.48-.48s.48.22.48.48v1.05z" fill="#999899" id="레이어_2"/></svg>