<svg xmlns="http://www.w3.org/2000/svg" viewBox="0 0 6 6"><path d="M3 0C1.35 0 .01 1.34.01 2.99s1.34 3 2.99 3S5.99 4.65 5.99 3 4.65 0 3 0zM1.69 5.11c.09-.66.63-1.17 1.31-1.17s1.22.52 1.31 1.17a2.448 2.448 0 01-2.62 0zm.68-2.72c0-.34.28-.63.63-.63s.63.28.63.63-.29.63-.63.63-.63-.28-.63-.63zm2.39 2.37c-.2-.68-.78-1.19-1.49-1.3.49-.12.86-.55.86-1.07 0-.62-.5-1.13-1.13-1.13s-1.13.5-1.13 1.13c0 .53.37.95.86 1.07-.71.11-1.29.62-1.49 1.3C.79 4.31.51 3.68.51 2.99a2.49 2.49 0 014.98 0c0 .69-.28 1.32-.73 1.77z" fill="#ccc"/></svg>