<svg version="1.1" id="레이어_2" xmlns="http://www.w3.org/2000/svg" x="0" y="0" viewBox="0 0 14 15" xml:space="preserve"><style>.st0{fill:#999899}</style><path class="st0" d="M7 10.76a3.26 3.26 0 11.001-6.521A3.26 3.26 0 017 10.76zm0-5.52c-1.25 0-2.26 1.01-2.26 2.26 0 1.25 1.01 2.26 2.26 2.26 1.25 0 2.26-1.01 2.26-2.26 0-1.25-1.01-2.26-2.26-2.26z"/><path class="st0" d="M7 15c-1.27 0-1.57-.68-1.85-1.34-.17-.41-.37-.87-.85-1.37-.36-.38-.81-.3-1.52-.14-.76.17-1.79.4-2.45-.66-.72-1.16.04-2.06.6-2.72.37-.43.72-.84.72-1.27S1.3 6.66.93 6.22C.37 5.57-.4 4.67.33 3.51c.66-1.06 1.7-.83 2.45-.66.71.16 1.17.24 1.52-.14.47-.5.67-.96.85-1.37C5.43.68 5.73 0 7 0c1.28 0 1.57.68 1.85 1.34.17.4.37.87.85 1.37.36.38.81.3 1.52.14.75-.17 1.79-.4 2.45.66.72 1.16-.04 2.06-.6 2.72-.37.43-.72.85-.72 1.28s.35.84.72 1.28c.56.66 1.33 1.56.6 2.72-.66 1.06-1.7.82-2.45.66-.71-.16-1.16-.24-1.52.14-.47.5-.67.96-.85 1.37C8.57 14.32 8.28 15 7 15zm-3.37-3.98c.48 0 .98.13 1.4.59.6.63.85 1.23 1.04 1.66.26.6.32.73.93.73s.67-.13.93-.73c.19-.43.44-1.03 1.04-1.66.77-.81 1.75-.59 2.47-.43.81.18 1.12.21 1.38-.21.31-.49.1-.81-.51-1.54-.45-.53-.96-1.13-.96-1.93s.51-1.4.96-1.93c.62-.72.82-1.04.51-1.54-.26-.42-.57-.39-1.38-.21-.72.16-1.7.38-2.47-.43-.6-.63-.85-1.23-1.04-1.66C7.67 1.13 7.61 1 7 1s-.67.13-.93.73c-.18.44-.44 1.03-1.04 1.67-.76.81-1.75.59-2.47.43-.81-.18-1.12-.21-1.38.21-.31.49-.1.81.51 1.54.45.52.96 1.12.96 1.92s-.51 1.4-.96 1.93c-.62.72-.82 1.04-.51 1.54.26.42.57.39 1.38.21.32-.08.69-.16 1.07-.16z"/></svg>