<svg xmlns="http://www.w3.org/2000/svg" viewBox="0 0 20.702 23.529"><g data-name="Layer 2"><g data-name="레이어 2"><path d="M10.351.97c5.606 0 7.315 2.877 7.315 12.318 0 .235-.002.458-.005.67-.014 1.287-.024 2.217.57 2.817a1.526 1.526 0 001.117.448c.198 0 .385.454.385.935 0 .374-.134.893-.385.893H1.355c-.252 0-.386-.518-.386-.893 0-.48.188-.935.386-.935a1.526 1.526 0 001.117-.447c.594-.601.584-1.531.57-2.818a46.649 46.649 0 01-.006-.67C3.036 3.848 4.746.97 10.351.97m0-.969C3.56 0 2.067 4.332 2.067 13.288c0 1.801.144 2.965-.712 2.965-1.78 0-1.834 3.767 0 3.767h17.993c1.833 0 1.779-3.767 0-3.767-.856 0-.713-1.164-.713-2.965C18.635 4.332 17.142 0 10.351 0z" fill="#fff"/><path d="M7.495 19.72a2.9 2.9 0 105.712 0" fill="none" stroke="#fff" stroke-linecap="round" stroke-linejoin="round" stroke-width=".969"/></g></g></svg>