<svg version="1.1" id="레이어_1" xmlns="http://www.w3.org/2000/svg" x="0" y="0" viewBox="0 0 10 18" xml:space="preserve"><style>.st0{fill:#999899}</style><path class="st0" d="M7.94 0H2.06C.92 0 0 .96 0 2.14v13.71C0 17.04.92 18 2.06 18h5.89c1.13 0 2.05-.96 2.05-2.14V2.14C10 .96 9.08 0 7.94 0zM6.63.95c0 .64-.18 1.3-1.63 1.3-1.44 0-1.63-.66-1.63-1.3h3.26zm2.46 14.91c0 .66-.51 1.2-1.15 1.2H2.06c-.63 0-1.15-.54-1.15-1.2V2.14c0-.66.51-1.2 1.15-1.2h.32c0 1.51.96 2.3 2.63 2.3s2.63-.79 2.63-2.3h.32c.63 0 1.15.54 1.15 1.2v13.72z"/><path class="st0" d="M6.28 15.93H3.72c-.27 0-.5-.29-.5-.66s.22-.66.5-.66h2.57c.27 0 .5.29.5.66s-.23.66-.51.66z"/></svg>