<svg version="1.1" id="레이어_3" xmlns="http://www.w3.org/2000/svg" x="0" y="0" viewBox="0 0 12 12" xml:space="preserve"><style>.st0{fill:#abaaaa}</style><path class="st0" d="M6 2.66h4.71V1.33H7.93V0H4.07v1.33H1.29v1.33zm2.81 1.36l-.37 6.09v.06c0 .45-.49.83-1.08.83H4.63c-.59 0-1.08-.38-1.08-.83v-.06l-.36-6.09h5.62m1.07-1H2.12l.43 7.15c0 1.01.93 1.83 2.08 1.83h2.74c1.15 0 2.08-.82 2.08-1.83l.43-7.15z"/><path class="st0" d="M5.5 4.68h1v5.51h-1z"/><path transform="rotate(-4.656 4.394 7.426)" class="st0" d="M3.9 4.67h1v5.53h-1z"/><path transform="rotate(-85.406 7.602 7.43)" class="st0" d="M4.84 6.93h5.53v1H4.84z"/></svg>