<svg xmlns="http://www.w3.org/2000/svg" viewBox="0 0 6 6"><path d="M4.96 3.49c0-1.75-.74-2.43-1.72-2.53.05-.1.08-.23.08-.37C3.32.27 3.17 0 3 0s-.32.27-.32.59c0 .14.03.27.08.37-.97.1-1.72.79-1.72 2.53 0 .77-1.01.57-1.01 1.25 0 .48.45.54 2.16.54h.06c.12.42.4.72.75.72s.63-.3.75-.71h.06c1.71-.01 2.16-.06 2.16-.54 0-.69-1.01-.49-1.01-1.26zM3 .29c.03.05.07.16.07.31 0 .14-.04.25-.07.3a.637.637 0 01-.07-.31c0-.15.04-.25.07-.3zm0 5.46c-.21 0-.4-.18-.5-.45h1c-.1.27-.29.45-.5.45zm.81-.96H2.2c-.48 0-1.31 0-1.63-.08.05-.03.12-.07.18-.1.28-.14.8-.41.8-1.11 0-2.05 1.1-2.05 1.46-2.05s1.46 0 1.46 2.05c0 .7.52.97.8 1.11.05.03.12.06.17.1-.34.07-1.16.08-1.63.08z" fill="#999899"/></svg>