<svg xmlns="http://www.w3.org/2000/svg" viewBox="0 0 23.159 23.159"><g data-name="Layer 2"><g data-name="레이어 2"><circle cx="11.579" cy="11.579" r="11.579" fill="#fff"/><path d="M17.842 7.463c-.961-1.454-3.125.022-3.774-.627s.15-2.856-2.488-2.856-1.84 2.208-2.489 2.856-2.813-.827-3.774.627c-1.087 1.645.774 2.778.774 4.116s-1.86 2.472-.774 4.117c.961 1.454 3.125-.022 3.774.627s-.15 2.856 2.489 2.856 1.84-2.208 2.488-2.856 2.814.827 3.774-.627c1.087-1.645-.773-2.778-.773-4.117s1.86-2.471.773-4.116zm-6.262 6.913a2.595 2.595 0 112.595-2.595 2.595 2.595 0 01-2.595 2.595z" fill="#8e8f8f"/></g></g></svg>