<svg version="1.1" id="레이어_1" xmlns="http://www.w3.org/2000/svg" x="0" y="0" viewBox="0 0 14 20" xml:space="preserve"><style>.st1{fill:#2772ba}</style><path fill="none" d="M1.17 9.19h11.67v9.65H1.17z"/><path class="st1" d="M11.79 8.02H1.04C.47 8.02 0 8.49 0 9.06v9.9C0 19.53.47 20 1.04 20h11.92c.57 0 1.04-.47 1.04-1.04v-9.9c0-.57-.47-1.04-1.04-1.04h-1.17z"/><path class="st1" d="M3.42 4.79c0-1.97 1.61-3.58 3.58-3.58s3.58 1.61 3.58 3.58v3.24h1.21V4.79C11.79 2.14 9.65 0 7 0S2.21 2.14 2.21 4.79v3.24h1.21V4.79z"/></svg>