<svg version="1.1" id="레이어_3" xmlns="http://www.w3.org/2000/svg" x="0" y="0" viewBox="0 0 6 6" xml:space="preserve"><style>.st0{fill:#999899}</style><path class="st0" d="M1.52.29c.15.04.29.12.4.23.29.29.37.73.19 1.11-.04.1-.02.21.05.28l1.93 1.93c.05.05.11.07.18.07.04 0 .07-.01.1-.02.13-.06.28-.09.42-.09.26 0 .5.1.68.28.11.11.19.25.23.4l-.2-.21a.234.234 0 00-.17-.07c-.02 0-.05 0-.07.01l-.69.19c-.08.03-.14.09-.17.17l-.2.68c-.03.09 0 .18.06.25l.21.21a.895.895 0 01-.4-.23 1 1 0 01-.21-1.02c.03-.09 0-.19-.06-.26l-2-2a.287.287 0 00-.18-.07c-.03 0-.05 0-.08.01a.96.96 0 01-1.01-.22.895.895 0 01-.23-.4l.2.21c.05.05.11.07.17.07.02 0 .05 0 .07-.01l.68-.2c.09-.02.15-.08.18-.16l.2-.68c.03-.09 0-.18-.06-.25L1.52.29M1.25 0c-.11 0-.22.01-.33.04l.63.63-.2.68-.68.2L.04.92c-.1.41-.02.86.3 1.18.24.24.55.35.86.35.14 0 .28-.02.42-.07l2 2c-.15.43-.06.93.28 1.27.24.24.54.35.85.35.11 0 .22-.01.33-.04l-.63-.63.2-.68.68-.2.63.63c.1-.41.02-.86-.3-1.18-.24-.24-.55-.35-.87-.35-.18 0-.36.04-.53.12L2.34 1.73c.21-.45.13-1.01-.24-1.38A1.18 1.18 0 001.25 0z"/><path class="st0" d="M5.4 0l-.99.64-.16.57-1.28 1.28.17.18 1.31-1.31.2.2-1.32 1.31.17.17-.23.23 1.52-1.52.57-.16L6 .6 5.4 0zm-.56 1.48l-.33-.33.11-.35.58.58-.36.1zm.47-.26L4.78.69l.59-.38.32.32-.38.59zM2.6 3.59l-.2-.2.2-.2-.16-.17-.2.2-.3-.3-.12.12C.74 4.12-.27 5.14.09 5.73l-.06.06.18.18.05-.05c.08.05.17.08.27.08.61 0 1.5-.89 2.43-1.83l.11-.11-.3-.3.19-.19-.16-.18-.2.2zm-.66-.32l.13.13.17.17L.27 5.55c-.13-.46.84-1.45 1.67-2.28zM.45 5.73l1.97-1.98.18.19.13.13C1.9 4.9.91 5.87.45 5.73z"/></svg>